<?xml version="1.0" standalone="no"?>
<!DOCTYPE svg PUBLIC "-//W3C//DTD SVG 20010904//EN"
 "http://www.w3.org/TR/2001/REC-SVG-20010904/DTD/svg10.dtd">
<svg version="1.0" xmlns="http://www.w3.org/2000/svg"
 width="225.000000pt" height="225.000000pt" viewBox="0 0 225.000000 225.000000"
 preserveAspectRatio="xMidYMid meet">

<g transform="translate(0.000000,225.000000) scale(0.100000,-0.100000)"
fill="#000000" stroke="none">
<path d="M885 2235 c-417 -91 -745 -410 -856 -830 -21 -80 -24 -112 -24 -280
0 -168 3 -200 24 -280 87 -333 303 -596 606 -741 182 -87 226 -96 470 -101
199 -4 215 -3 307 21 264 67 510 238 657 454 59 88 126 231 156 336 23 82 25
103 25 311 0 208 -2 229 -25 311 -30 105 -97 248 -156 336 -147 217 -393 386
-658 454 -83 21 -114 24 -280 23 -114 0 -209 -6 -246 -14z m291 -551 c21 -15
78 -57 125 -95 48 -38 92 -69 98 -69 7 0 11 29 11 83 0 51 5 88 12 95 7 7 41
12 82 12 108 0 106 4 106 -219 l0 -186 56 -65 c72 -84 114 -145 114 -164 0
-36 -37 -56 -105 -56 -76 0 -64 27 -100 -225 -31 -216 -30 -215 -156 -236
-112 -19 -466 -19 -577 0 -128 21 -124 14 -158 256 l-28 205 -65 0 c-53 0 -69
4 -88 22 -13 12 -23 27 -23 34 0 37 186 252 335 387 108 97 298 247 314 247 5
0 26 -12 47 -26z"/>
<path d="M960 955 c-18 -22 -10 -220 10 -239 20 -20 146 -31 244 -21 92 8 90
6 100 147 9 133 15 128 -183 128 -127 0 -161 -3 -171 -15z"/>
</g>
</svg>
